<mxfile host="Electron" agent="Mozilla/5.0 (X11; Linux x86_64) AppleWebKit/537.36 (KHTML, like Gecko) draw.io/24.7.17 Chrome/128.0.6613.162 Electron/32.1.2 Safari/537.36" version="24.7.17">
  <diagram name="Page-1" id="P97AIu9cCgrbcwM8xJiL">
    <mxGraphModel dx="1114" dy="1746" grid="1" gridSize="10" guides="1" tooltips="1" connect="1" arrows="1" fold="1" page="1" pageScale="1" pageWidth="591" pageHeight="787" math="0" shadow="0">
      <root>
        <mxCell id="0" />
        <mxCell id="1" parent="0" />
        <mxCell id="MKco6J3InTUsEpSbk6Ku-86" value="" style="rounded=1;whiteSpace=wrap;html=1;fillColor=#d5e8d4;strokeColor=#82b366;" vertex="1" parent="1">
          <mxGeometry x="775" y="573" width="190" height="147" as="geometry" />
        </mxCell>
        <mxCell id="MKco6J3InTUsEpSbk6Ku-84" value="" style="rounded=1;whiteSpace=wrap;html=1;fillColor=#f8cecc;strokeColor=#b85450;" vertex="1" parent="1">
          <mxGeometry x="560" y="573" width="190" height="147" as="geometry" />
        </mxCell>
        <mxCell id="MKco6J3InTUsEpSbk6Ku-12" value="" style="rounded=1;whiteSpace=wrap;html=1;" vertex="1" parent="1">
          <mxGeometry x="226" y="430" width="140" height="130" as="geometry" />
        </mxCell>
        <mxCell id="MKco6J3InTUsEpSbk6Ku-13" value="&lt;span style=&quot;text-wrap: wrap;&quot;&gt;Flow&lt;/span&gt;" style="text;html=1;align=center;verticalAlign=middle;resizable=0;points=[];autosize=1;strokeColor=none;fillColor=none;fontStyle=1" vertex="1" parent="1">
          <mxGeometry x="271" y="430" width="50" height="30" as="geometry" />
        </mxCell>
        <mxCell id="MKco6J3InTUsEpSbk6Ku-14" value="" style="rounded=1;whiteSpace=wrap;html=1;" vertex="1" parent="1">
          <mxGeometry x="330" y="590" width="140" height="130" as="geometry" />
        </mxCell>
        <mxCell id="MKco6J3InTUsEpSbk6Ku-15" value="" style="rounded=1;whiteSpace=wrap;html=1;" vertex="1" parent="1">
          <mxGeometry x="131" y="590" width="140" height="130" as="geometry" />
        </mxCell>
        <mxCell id="MKco6J3InTUsEpSbk6Ku-16" value="" style="rounded=1;whiteSpace=wrap;html=1;" vertex="1" parent="1">
          <mxGeometry x="131" y="750" width="140" height="130" as="geometry" />
        </mxCell>
        <mxCell id="MKco6J3InTUsEpSbk6Ku-17" value="" style="endArrow=classic;html=1;rounded=0;exitX=0.25;exitY=1;exitDx=0;exitDy=0;entryX=0.75;entryY=0;entryDx=0;entryDy=0;" edge="1" parent="1" source="MKco6J3InTUsEpSbk6Ku-12" target="MKco6J3InTUsEpSbk6Ku-15">
          <mxGeometry width="50" height="50" relative="1" as="geometry">
            <mxPoint x="170" y="620" as="sourcePoint" />
            <mxPoint x="220" y="570" as="targetPoint" />
          </mxGeometry>
        </mxCell>
        <mxCell id="MKco6J3InTUsEpSbk6Ku-18" value="" style="endArrow=classic;html=1;rounded=0;exitX=0.75;exitY=1;exitDx=0;exitDy=0;entryX=0.25;entryY=0;entryDx=0;entryDy=0;" edge="1" parent="1" source="MKco6J3InTUsEpSbk6Ku-12" target="MKco6J3InTUsEpSbk6Ku-14">
          <mxGeometry width="50" height="50" relative="1" as="geometry">
            <mxPoint x="271" y="570" as="sourcePoint" />
            <mxPoint x="246" y="600" as="targetPoint" />
          </mxGeometry>
        </mxCell>
        <mxCell id="MKco6J3InTUsEpSbk6Ku-19" value="" style="endArrow=classic;html=1;rounded=0;exitX=0.5;exitY=1;exitDx=0;exitDy=0;entryX=0.5;entryY=0;entryDx=0;entryDy=0;" edge="1" parent="1" source="MKco6J3InTUsEpSbk6Ku-15" target="MKco6J3InTUsEpSbk6Ku-16">
          <mxGeometry width="50" height="50" relative="1" as="geometry">
            <mxPoint x="271" y="570" as="sourcePoint" />
            <mxPoint x="246" y="600" as="targetPoint" />
          </mxGeometry>
        </mxCell>
        <mxCell id="MKco6J3InTUsEpSbk6Ku-20" value="1 flow has n" style="text;html=1;align=center;verticalAlign=middle;resizable=0;points=[];autosize=1;strokeColor=none;fillColor=none;" vertex="1" parent="1">
          <mxGeometry x="156" y="560" width="90" height="30" as="geometry" />
        </mxCell>
        <mxCell id="MKco6J3InTUsEpSbk6Ku-21" value="1 flow has n" style="text;html=1;align=center;verticalAlign=middle;resizable=0;points=[];autosize=1;strokeColor=none;fillColor=none;" vertex="1" parent="1">
          <mxGeometry x="350" y="560" width="90" height="30" as="geometry" />
        </mxCell>
        <mxCell id="MKco6J3InTUsEpSbk6Ku-22" value="1 tiem series has n" style="text;html=1;align=center;verticalAlign=middle;resizable=0;points=[];autosize=1;strokeColor=none;fillColor=none;" vertex="1" parent="1">
          <mxGeometry x="80" y="720" width="120" height="30" as="geometry" />
        </mxCell>
        <mxCell id="MKco6J3InTUsEpSbk6Ku-23" value="&lt;span style=&quot;text-wrap: wrap;&quot;&gt;TimeSeries&lt;/span&gt;" style="text;html=1;align=center;verticalAlign=middle;resizable=0;points=[];autosize=1;strokeColor=none;fillColor=none;fontStyle=1" vertex="1" parent="1">
          <mxGeometry x="161" y="590" width="80" height="30" as="geometry" />
        </mxCell>
        <mxCell id="MKco6J3InTUsEpSbk6Ku-24" value="&lt;span style=&quot;text-wrap: wrap;&quot;&gt;FlowAttribute&lt;/span&gt;" style="text;html=1;align=center;verticalAlign=middle;resizable=0;points=[];autosize=1;strokeColor=none;fillColor=none;fontStyle=1" vertex="1" parent="1">
          <mxGeometry x="355" y="590" width="90" height="30" as="geometry" />
        </mxCell>
        <mxCell id="MKco6J3InTUsEpSbk6Ku-25" value="&lt;span style=&quot;text-wrap: wrap;&quot;&gt;DataPoint&lt;/span&gt;" style="text;html=1;align=center;verticalAlign=middle;resizable=0;points=[];autosize=1;strokeColor=none;fillColor=none;fontStyle=1" vertex="1" parent="1">
          <mxGeometry x="161" y="750" width="80" height="30" as="geometry" />
        </mxCell>
        <mxCell id="MKco6J3InTUsEpSbk6Ku-26" value="create_flow" style="text;html=1;align=center;verticalAlign=middle;resizable=0;points=[];autosize=1;strokeColor=none;fillColor=none;" vertex="1" parent="1">
          <mxGeometry x="255" y="460" width="80" height="30" as="geometry" />
        </mxCell>
        <mxCell id="MKco6J3InTUsEpSbk6Ku-27" value="delete_flow" style="text;html=1;align=center;verticalAlign=middle;resizable=0;points=[];autosize=1;strokeColor=none;fillColor=none;" vertex="1" parent="1">
          <mxGeometry x="256" y="480" width="80" height="30" as="geometry" />
        </mxCell>
        <mxCell id="MKco6J3InTUsEpSbk6Ku-28" value="list_flows" style="text;html=1;align=center;verticalAlign=middle;resizable=0;points=[];autosize=1;strokeColor=none;fillColor=none;" vertex="1" parent="1">
          <mxGeometry x="261" y="500" width="70" height="30" as="geometry" />
        </mxCell>
        <mxCell id="MKco6J3InTUsEpSbk6Ku-29" value="create_time_series" style="text;html=1;align=center;verticalAlign=middle;resizable=0;points=[];autosize=1;strokeColor=none;fillColor=none;" vertex="1" parent="1">
          <mxGeometry x="141" y="620" width="120" height="30" as="geometry" />
        </mxCell>
        <mxCell id="MKco6J3InTUsEpSbk6Ku-30" value="delete_time_series" style="text;html=1;align=center;verticalAlign=middle;resizable=0;points=[];autosize=1;strokeColor=none;fillColor=none;" vertex="1" parent="1">
          <mxGeometry x="140" y="640" width="120" height="30" as="geometry" />
        </mxCell>
        <mxCell id="MKco6J3InTUsEpSbk6Ku-31" value="list_time_series" style="text;html=1;align=center;verticalAlign=middle;resizable=0;points=[];autosize=1;strokeColor=none;fillColor=none;" vertex="1" parent="1">
          <mxGeometry x="146" y="660" width="110" height="30" as="geometry" />
        </mxCell>
        <mxCell id="MKco6J3InTUsEpSbk6Ku-32" value="get_data_points" style="text;html=1;align=center;verticalAlign=middle;resizable=0;points=[];autosize=1;strokeColor=none;fillColor=none;" vertex="1" parent="1">
          <mxGeometry x="146" y="780" width="110" height="30" as="geometry" />
        </mxCell>
        <mxCell id="MKco6J3InTUsEpSbk6Ku-33" value="insert_data_points" style="text;html=1;align=center;verticalAlign=middle;resizable=0;points=[];autosize=1;strokeColor=none;fillColor=none;" vertex="1" parent="1">
          <mxGeometry x="141" y="800" width="120" height="30" as="geometry" />
        </mxCell>
        <mxCell id="MKco6J3InTUsEpSbk6Ku-34" value="insert_multiple_points" style="text;html=1;align=center;verticalAlign=middle;resizable=0;points=[];autosize=1;strokeColor=none;fillColor=none;" vertex="1" parent="1">
          <mxGeometry x="131" y="820" width="140" height="30" as="geometry" />
        </mxCell>
        <mxCell id="MKco6J3InTUsEpSbk6Ku-35" value="get_flow_attribute" style="text;html=1;align=center;verticalAlign=middle;resizable=0;points=[];autosize=1;strokeColor=none;fillColor=none;" vertex="1" parent="1">
          <mxGeometry x="339.5" y="613" width="120" height="30" as="geometry" />
        </mxCell>
        <mxCell id="MKco6J3InTUsEpSbk6Ku-36" value="add_flow_attribute" style="text;html=1;align=center;verticalAlign=middle;resizable=0;points=[];autosize=1;strokeColor=none;fillColor=none;" vertex="1" parent="1">
          <mxGeometry x="340.5" y="633" width="120" height="30" as="geometry" />
        </mxCell>
        <mxCell id="MKco6J3InTUsEpSbk6Ku-37" value="list_flow_attributes" style="text;html=1;align=center;verticalAlign=middle;resizable=0;points=[];autosize=1;strokeColor=none;fillColor=none;" vertex="1" parent="1">
          <mxGeometry x="340.5" y="653" width="120" height="30" as="geometry" />
        </mxCell>
        <mxCell id="MKco6J3InTUsEpSbk6Ku-38" value="set_flow_attribute" style="text;html=1;align=center;verticalAlign=middle;resizable=0;points=[];autosize=1;strokeColor=none;fillColor=none;" vertex="1" parent="1">
          <mxGeometry x="340.5" y="673" width="120" height="30" as="geometry" />
        </mxCell>
        <mxCell id="MKco6J3InTUsEpSbk6Ku-39" value="delete_flow_attribute" style="text;html=1;align=center;verticalAlign=middle;resizable=0;points=[];autosize=1;strokeColor=none;fillColor=none;" vertex="1" parent="1">
          <mxGeometry x="335.5" y="693" width="130" height="30" as="geometry" />
        </mxCell>
        <mxCell id="MKco6J3InTUsEpSbk6Ku-40" value="" style="rounded=1;whiteSpace=wrap;html=1;" vertex="1" parent="1">
          <mxGeometry x="686" y="430" width="140" height="130" as="geometry" />
        </mxCell>
        <mxCell id="MKco6J3InTUsEpSbk6Ku-41" value="&lt;span style=&quot;text-wrap: wrap;&quot;&gt;Flow&lt;/span&gt;" style="text;html=1;align=center;verticalAlign=middle;resizable=0;points=[];autosize=1;strokeColor=none;fillColor=none;fontStyle=1" vertex="1" parent="1">
          <mxGeometry x="731" y="430" width="50" height="30" as="geometry" />
        </mxCell>
        <mxCell id="MKco6J3InTUsEpSbk6Ku-42" value="&lt;span style=&quot;font-weight: 700;&quot;&gt;Name:&amp;nbsp;&lt;/span&gt;&quot;Testflow&quot;" style="rounded=1;whiteSpace=wrap;html=1;" vertex="1" parent="1">
          <mxGeometry x="790" y="590" width="160" height="30" as="geometry" />
        </mxCell>
        <mxCell id="MKco6J3InTUsEpSbk6Ku-43" value="&lt;span style=&quot;font-weight: 700;&quot;&gt;Name:&amp;nbsp;&lt;/span&gt;ACK" style="rounded=1;whiteSpace=wrap;html=1;" vertex="1" parent="1">
          <mxGeometry x="570" y="590" width="79" height="30" as="geometry" />
        </mxCell>
        <mxCell id="MKco6J3InTUsEpSbk6Ku-45" value="" style="endArrow=classic;html=1;rounded=0;exitX=0.25;exitY=1;exitDx=0;exitDy=0;entryX=0.75;entryY=0;entryDx=0;entryDy=0;" edge="1" parent="1" source="MKco6J3InTUsEpSbk6Ku-40" target="MKco6J3InTUsEpSbk6Ku-43">
          <mxGeometry width="50" height="50" relative="1" as="geometry">
            <mxPoint x="630" y="620" as="sourcePoint" />
            <mxPoint x="680" y="570" as="targetPoint" />
          </mxGeometry>
        </mxCell>
        <mxCell id="MKco6J3InTUsEpSbk6Ku-46" value="" style="endArrow=classic;html=1;rounded=0;exitX=0.75;exitY=1;exitDx=0;exitDy=0;entryX=0.25;entryY=0;entryDx=0;entryDy=0;" edge="1" parent="1" source="MKco6J3InTUsEpSbk6Ku-40" target="MKco6J3InTUsEpSbk6Ku-42">
          <mxGeometry width="50" height="50" relative="1" as="geometry">
            <mxPoint x="731" y="570" as="sourcePoint" />
            <mxPoint x="706" y="600" as="targetPoint" />
          </mxGeometry>
        </mxCell>
        <mxCell id="MKco6J3InTUsEpSbk6Ku-68" value="Src: 10.0.0.1" style="text;html=1;align=center;verticalAlign=middle;resizable=0;points=[];autosize=1;strokeColor=none;fillColor=none;" vertex="1" parent="1">
          <mxGeometry x="711" y="450" width="90" height="30" as="geometry" />
        </mxCell>
        <mxCell id="MKco6J3InTUsEpSbk6Ku-69" value="Dst: 10.0.0.2" style="text;html=1;align=center;verticalAlign=middle;resizable=0;points=[];autosize=1;strokeColor=none;fillColor=none;" vertex="1" parent="1">
          <mxGeometry x="711" y="470" width="90" height="30" as="geometry" />
        </mxCell>
        <mxCell id="MKco6J3InTUsEpSbk6Ku-70" value="Sport: 200" style="text;html=1;align=center;verticalAlign=middle;resizable=0;points=[];autosize=1;strokeColor=none;fillColor=none;" vertex="1" parent="1">
          <mxGeometry x="716" y="490" width="80" height="30" as="geometry" />
        </mxCell>
        <mxCell id="MKco6J3InTUsEpSbk6Ku-71" value="Dport: 200" style="text;html=1;align=center;verticalAlign=middle;resizable=0;points=[];autosize=1;strokeColor=none;fillColor=none;" vertex="1" parent="1">
          <mxGeometry x="716" y="510" width="80" height="30" as="geometry" />
        </mxCell>
        <mxCell id="MKco6J3InTUsEpSbk6Ku-72" value="l4proto: 16" style="text;html=1;align=center;verticalAlign=middle;resizable=0;points=[];autosize=1;strokeColor=none;fillColor=none;" vertex="1" parent="1">
          <mxGeometry x="716" y="530" width="80" height="30" as="geometry" />
        </mxCell>
        <mxCell id="MKco6J3InTUsEpSbk6Ku-73" value="&lt;span style=&quot;font-weight: 700;&quot;&gt;Packets:&amp;nbsp;&lt;/span&gt;200" style="rounded=1;whiteSpace=wrap;html=1;" vertex="1" parent="1">
          <mxGeometry x="790" y="620" width="160" height="30" as="geometry" />
        </mxCell>
        <mxCell id="MKco6J3InTUsEpSbk6Ku-74" value="&lt;span style=&quot;font-weight: 700;&quot;&gt;AvgRate:&amp;nbsp;&lt;/span&gt;10.5" style="rounded=1;whiteSpace=wrap;html=1;" vertex="1" parent="1">
          <mxGeometry x="790" y="650" width="160" height="30" as="geometry" />
        </mxCell>
        <mxCell id="MKco6J3InTUsEpSbk6Ku-75" value="&lt;b&gt;PacketLoss: &lt;/b&gt;True" style="rounded=1;whiteSpace=wrap;html=1;" vertex="1" parent="1">
          <mxGeometry x="790" y="680" width="160" height="30" as="geometry" />
        </mxCell>
        <mxCell id="MKco6J3InTUsEpSbk6Ku-76" value="&lt;span style=&quot;font-weight: 700;&quot;&gt;Name:&amp;nbsp;&lt;/span&gt;SEQ" style="rounded=1;whiteSpace=wrap;html=1;" vertex="1" parent="1">
          <mxGeometry x="660" y="590" width="79" height="30" as="geometry" />
        </mxCell>
        <mxCell id="MKco6J3InTUsEpSbk6Ku-77" value="0 -&lt;b&gt;&amp;nbsp;1&lt;/b&gt;" style="rounded=1;whiteSpace=wrap;html=1;" vertex="1" parent="1">
          <mxGeometry x="570" y="620" width="79" height="30" as="geometry" />
        </mxCell>
        <mxCell id="MKco6J3InTUsEpSbk6Ku-78" value="10 -&lt;b&gt;&amp;nbsp;200&lt;/b&gt;" style="rounded=1;whiteSpace=wrap;html=1;" vertex="1" parent="1">
          <mxGeometry x="570" y="650" width="79" height="30" as="geometry" />
        </mxCell>
        <mxCell id="MKco6J3InTUsEpSbk6Ku-79" value="20 -&lt;b&gt;&amp;nbsp;300&lt;/b&gt;" style="rounded=1;whiteSpace=wrap;html=1;" vertex="1" parent="1">
          <mxGeometry x="570" y="680" width="79" height="30" as="geometry" />
        </mxCell>
        <mxCell id="MKco6J3InTUsEpSbk6Ku-80" value="0 -&lt;b&gt;&amp;nbsp;1&lt;/b&gt;" style="rounded=1;whiteSpace=wrap;html=1;" vertex="1" parent="1">
          <mxGeometry x="660" y="620" width="79" height="30" as="geometry" />
        </mxCell>
        <mxCell id="MKco6J3InTUsEpSbk6Ku-81" value="10 -&lt;b&gt;&amp;nbsp;300&lt;/b&gt;" style="rounded=1;whiteSpace=wrap;html=1;" vertex="1" parent="1">
          <mxGeometry x="660" y="650" width="79" height="30" as="geometry" />
        </mxCell>
        <mxCell id="MKco6J3InTUsEpSbk6Ku-82" value="20 -&lt;b&gt;&amp;nbsp;400&lt;/b&gt;" style="rounded=1;whiteSpace=wrap;html=1;" vertex="1" parent="1">
          <mxGeometry x="660" y="680" width="79" height="30" as="geometry" />
        </mxCell>
        <mxCell id="MKco6J3InTUsEpSbk6Ku-83" value="" style="endArrow=classic;html=1;rounded=0;entryX=0.5;entryY=0;entryDx=0;entryDy=0;exitX=0.25;exitY=1;exitDx=0;exitDy=0;" edge="1" parent="1" source="MKco6J3InTUsEpSbk6Ku-40" target="MKco6J3InTUsEpSbk6Ku-76">
          <mxGeometry width="50" height="50" relative="1" as="geometry">
            <mxPoint x="720" y="570" as="sourcePoint" />
            <mxPoint x="639" y="600" as="targetPoint" />
          </mxGeometry>
        </mxCell>
        <mxCell id="MKco6J3InTUsEpSbk6Ku-85" value="TimeSeries" style="text;html=1;align=center;verticalAlign=middle;resizable=0;points=[];autosize=1;strokeColor=none;fillColor=none;" vertex="1" parent="1">
          <mxGeometry x="560" y="550" width="80" height="30" as="geometry" />
        </mxCell>
        <mxCell id="MKco6J3InTUsEpSbk6Ku-87" value="FlowAttributes" style="text;html=1;align=center;verticalAlign=middle;resizable=0;points=[];autosize=1;strokeColor=none;fillColor=none;" vertex="1" parent="1">
          <mxGeometry x="870" y="550" width="100" height="30" as="geometry" />
        </mxCell>
      </root>
    </mxGraphModel>
  </diagram>
</mxfile>
